<svg width="512" height="512" viewBox="0 0 11 11" xmlns="http://www.w3.org/2000/svg" version="1.1"><rect style="fill: white" x="0" y="0" width="11" height="11"></rect><g stroke="black" stroke-width="0.08" stroke-linecap="round"><line x1="2" y1="2" x2="2" y2="10"></line><line x1="2" y1="2" x2="10" y2="2"></line><line x1="3" y1="2" x2="3" y2="10"></line><line x1="2" y1="3" x2="10" y2="3"></line><line x1="4" y1="2" x2="4" y2="10"></line><line x1="2" y1="4" x2="10" y2="4"></line><line x1="5" y1="2" x2="5" y2="10"></line><line x1="2" y1="5" x2="10" y2="5"></line><line x1="6" y1="2" x2="6" y2="10"></line><line x1="2" y1="6" x2="10" y2="6"></line><line x1="7" y1="2" x2="7" y2="10"></line><line x1="2" y1="7" x2="10" y2="7"></line><line x1="8" y1="2" x2="8" y2="10"></line><line x1="2" y1="8" x2="10" y2="8"></line><line x1="9" y1="2" x2="9" y2="10"></line><line x1="2" y1="9" x2="10" y2="9"></line><line x1="10" y1="2" x2="10" y2="10"></line><line x1="2" y1="10" x2="10" y2="10"></line></g><g font-size="0.75" font-weight="normal" style="font-family: Sans; letter-spacing: 0"><g text-anchor="middle"><text x="2.5" y="1.3">1</text><text x="3.5" y="1.3">2</text><text x="4.5" y="1.3">3</text><text x="5.5" y="1.3">4</text><text x="6.5" y="1.3">5</text><text x="7.5" y="1.3">6</text><text x="8.5" y="1.3">7</text><text x="9.5" y="1.3">8</text></g><g text-anchor="right"><text x="0.8" y="2.8">A</text><text x="0.8" y="3.8">B</text><text x="0.8" y="4.8">C</text><text x="0.8" y="5.8">D</text><text x="0.8" y="6.8">E</text><text x="0.8" y="7.8">F</text><text x="0.8" y="8.8">G</text><text x="0.8" y="9.8">H</text></g></g><g fill="white"></g><g fill="black"><circle cx="6.5" cy="5.5" r="0.36"></circle><circle cx="5.5" cy="6.5" r="0.36"></circle></g><g fill="white" stroke="black" stroke-width="0.08"><circle cx="5.5" cy="5.5" r="0.32"></circle><circle cx="6.5" cy="6.5" r="0.32"></circle></g></svg>